<svg width="154" height="154" viewBox="0 0 154 154" fill="none" xmlns="http://www.w3.org/2000/svg">
<path d="M28.8555 85.9653C28.8555 61.0324 49.0676 40.8203 74.0005 40.8203C98.9334 40.8203 119.145 61.0324 119.145 85.9653C119.145 110.898 98.9334 131.11 74.0005 131.11C49.0676 131.11 28.8555 110.898 28.8555 85.9653Z" fill="#4709D7" fill-opacity="0.06"/>
<path d="M93.0315 147.711C93.237 147.589 93.3783 147.48 93.4489 147.37C93.526 147.268 93.5517 147.165 93.5453 147.062C93.5389 146.96 93.4939 146.863 93.4104 146.767C93.3205 146.677 93.2113 146.593 93.0829 146.516C92.9352 146.433 92.7809 146.362 92.6268 146.317C92.4662 146.272 92.3057 146.253 92.1323 146.253C91.9653 146.259 91.7855 146.285 91.6057 146.343C91.4194 146.401 91.2139 146.491 90.9891 146.626L90.1606 147.107L92.1195 148.237L93.0315 147.711ZM94.9004 149.843L96.0565 149.169C96.2428 149.06 96.3776 148.957 96.4739 148.854C96.5639 148.745 96.6217 148.642 96.6345 148.533C96.6602 148.424 96.6345 148.315 96.5639 148.205C96.4932 148.096 96.3712 147.993 96.2042 147.897C96.0243 147.794 95.8381 147.717 95.639 147.672C95.4464 147.621 95.2472 147.608 95.0417 147.614C94.8426 147.627 94.6307 147.666 94.4187 147.737C94.2004 147.801 93.9756 147.91 93.7187 148.051L92.7617 148.61L94.9004 149.843ZM93.826 132.586C93.7363 132.431 93.5387 132.38 93.387 132.469L67.2847 147.638C67.131 147.727 67.079 147.924 67.168 148.077C67.2276 148.18 67.3355 148.237 67.4459 148.237C67.5011 148.237 67.5563 148.223 67.6071 148.194L93.7094 133.025C93.863 132.936 93.9151 132.739 93.826 132.586ZM59.101 143.496C59.1606 143.599 59.2684 143.656 59.3788 143.656C59.434 143.656 59.4892 143.643 59.54 143.613L96.5079 122.13C96.6616 122.04 96.7136 121.844 96.6246 121.691C96.5349 121.536 96.338 121.485 96.1855 121.574L59.2176 143.057C59.064 143.146 59.0119 143.343 59.101 143.496ZM131.446 101.147C131.446 100.036 130.54 99.1302 129.429 99.1302C128.318 99.1302 127.412 100.036 127.412 101.147C127.412 102.258 128.318 103.157 129.429 103.157C130.54 103.157 131.446 102.258 131.446 101.147ZM128.054 101.147C128.054 100.389 128.671 99.7724 129.429 99.7724C130.187 99.7724 130.803 100.389 130.803 101.147C130.803 101.898 130.187 102.515 129.429 102.515C128.671 102.515 128.054 101.898 128.054 101.147ZM94.6178 54.8531C95.7289 54.8531 96.6345 53.9475 96.6345 52.8364C96.6345 51.7253 95.7289 50.8262 94.6178 50.8262C93.5067 50.8262 92.6011 51.7253 92.6011 52.8364C92.6011 53.9475 93.5067 54.8531 94.6178 54.8531ZM94.6178 51.4684C95.3756 51.4684 95.9922 52.0786 95.9922 52.8364C95.9922 53.5942 95.3756 54.2109 94.6178 54.2109C93.8599 54.2109 93.2433 53.5942 93.2433 52.8364C93.2433 52.0786 93.8599 51.4684 94.6178 51.4684ZM22.8194 73.0678L21.5794 71.8278C21.454 71.7023 21.2508 71.7023 21.1253 71.8278C20.9999 71.9532 20.9999 72.1564 21.1253 72.2819L22.3653 73.5218C22.428 73.5846 22.5102 73.6159 22.5923 73.6159C22.6745 73.6159 22.7567 73.5846 22.8194 73.5218C22.9448 73.3964 22.9448 73.1932 22.8194 73.0678ZM24.1158 74.3642C23.9904 74.2387 23.7872 74.2387 23.6617 74.3642C23.5363 74.4896 23.5363 74.6928 23.6617 74.8183L24.9017 76.0583C24.9644 76.121 25.0466 76.1523 25.1288 76.1523C25.2109 76.1523 25.2931 76.121 25.3558 76.0583C25.4812 75.9328 25.4812 75.7296 25.3558 75.6042L24.1158 74.3642ZM25.3558 71.8278C25.2304 71.7023 25.0271 71.7023 24.9017 71.8278L23.6617 73.0678C23.5363 73.1932 23.5363 73.3964 23.6617 73.5218C23.7245 73.5846 23.8066 73.6159 23.8888 73.6159C23.9709 73.6159 24.0531 73.5846 24.1158 73.5218L25.3558 72.2819C25.4812 72.1564 25.4812 71.9532 25.3558 71.8278ZM22.3653 74.3642L21.1253 75.6042C20.9999 75.7296 20.9999 75.9328 21.1253 76.0583C21.1881 76.121 21.2702 76.1523 21.3524 76.1523C21.4345 76.1523 21.5167 76.121 21.5794 76.0583L22.8194 74.8183C22.9448 74.6928 22.9448 74.4896 22.8194 74.3642C22.694 74.2387 22.4907 74.2387 22.3653 74.3642ZM40.1081 135.781C40.2856 135.781 40.4293 135.638 40.4293 135.46C40.4293 135.283 40.2856 135.139 40.1081 135.139H38.3545C38.177 135.139 38.0334 135.283 38.0334 135.46C38.0334 135.638 38.177 135.781 38.3545 135.781H40.1081ZM43.6957 135.781C43.8732 135.781 44.0169 135.638 44.0169 135.46C44.0169 135.283 43.8732 135.139 43.6957 135.139H41.9415C41.764 135.139 41.6203 135.283 41.6203 135.46C41.6203 135.638 41.764 135.781 41.9415 135.781H43.6957ZM41.0251 134.865C41.2026 134.865 41.3462 134.721 41.3462 134.544V132.79C41.3462 132.613 41.2026 132.469 41.0251 132.469C40.8476 132.469 40.704 132.613 40.704 132.79V134.544C40.704 134.721 40.8476 134.865 41.0251 134.865ZM40.704 138.131C40.704 138.308 40.8476 138.452 41.0251 138.452C41.2026 138.452 41.3462 138.308 41.3462 138.131V136.377C41.3462 136.2 41.2026 136.056 41.0251 136.056C40.8476 136.056 40.704 136.2 40.704 136.377V138.131ZM48.9663 101.699L72.1003 115.052C72.8004 115.456 73.6996 115.662 74.5986 115.662C75.5043 115.662 76.4034 115.456 77.1035 115.052L96.057 104.033L100.081 101.694L100.083 101.693C100.109 101.68 100.135 101.661 100.154 101.641C100.835 101.237 101.207 100.678 101.207 100.068L101.278 74.8336C101.278 74.6345 101.233 74.4354 101.15 74.2492C101.15 74.2492 101.15 74.2492 101.15 74.2428C101.143 74.2171 101.137 74.1914 101.124 74.1721C101.124 74.1657 101.117 74.1592 101.111 74.1528C101.072 74.0758 101.034 74.0051 100.983 73.9345C100.944 73.8831 100.905 73.8253 100.861 73.7739C100.841 73.7547 100.822 73.7354 100.803 73.7097C100.751 73.6519 100.694 73.5941 100.629 73.5363C100.488 73.4143 100.327 73.2922 100.148 73.1894L77.02 59.8434C76.9301 59.7921 76.8401 59.7471 76.7503 59.7021C76.5833 59.6251 76.4098 59.5544 76.23 59.4966C76.0951 59.4517 75.9603 59.4131 75.819 59.381C75.7162 59.3553 75.607 59.336 75.4979 59.3168C75.3373 59.2911 75.1768 59.2654 75.0098 59.2525C74.6822 59.2204 74.3418 59.2204 74.0142 59.2525C73.8537 59.2654 73.6867 59.2911 73.5261 59.3168C73.417 59.336 73.3077 59.3553 73.205 59.381C73.0637 59.4131 72.9289 59.4517 72.7939 59.4966C72.6142 59.5544 72.4408 59.6251 72.2802 59.7021C72.1902 59.7471 72.1003 59.7921 72.0104 59.8434L49.0305 73.1959C48.9599 73.2409 48.8893 73.2794 48.825 73.3308C48.7608 73.3757 48.6966 73.4207 48.6388 73.4721C48.5809 73.517 48.5232 73.5684 48.4718 73.6198C48.4332 73.6519 48.3947 73.6904 48.3562 73.7354C48.3176 73.7739 48.2791 73.8253 48.247 73.8703C48.1378 74.0051 48.0607 74.1528 48.0029 74.3005C47.9837 74.3455 47.9708 74.3905 47.9579 74.4419C47.9515 74.4547 47.9515 74.4739 47.9515 74.4868C47.9194 74.596 47.9066 74.7116 47.9066 74.8272L47.8359 100.055C47.8359 100.691 48.2341 101.275 48.9663 101.699ZM100.636 74.8015V74.8336L100.565 100.068C100.565 100.459 100.277 100.837 99.7577 101.139L76.7794 114.496C76.775 114.499 76.7727 114.503 76.7685 114.506C76.2378 114.809 75.5637 114.974 74.8702 115.013V88.6291C76.1989 88.5711 77.4893 88.2501 78.4972 87.6594L100.636 74.8015ZM99.8264 73.7483C99.8907 73.7868 99.9485 73.8253 100.006 73.8638C100.122 73.9409 100.225 74.0308 100.308 74.1207C100.334 74.1464 100.36 74.1785 100.379 74.2042L78.1761 87.1071C77.1755 87.6908 75.8739 87.986 74.5527 88.006L74.5491 88.0052L74.5443 88.0061C73.1451 88.0249 71.7399 87.7297 70.6746 87.1135L64.3419 83.4526L90.4046 68.3084L99.8264 73.7483ZM48.6645 74.397C48.6966 74.3391 48.7351 74.2877 48.78 74.23C48.8186 74.1721 48.87 74.1143 48.9342 74.063C48.992 74.0051 49.0562 73.9538 49.1269 73.9024C49.1975 73.851 49.2682 73.7996 49.3517 73.7547L72.3315 60.3958C72.9353 60.0489 73.7253 59.8755 74.5152 59.8755C75.3052 59.8755 76.0951 60.0489 76.6988 60.3958L85.0161 65.1934V65.1998L59.0754 80.2735H59.069C59.0625 80.2735 59.0561 80.2735 59.0497 80.2799C59.024 80.2928 59.0048 80.3121 58.9855 80.3314C58.979 80.3378 58.9727 80.3442 58.9663 80.3507L48.6645 74.4034C48.6645 74.397 48.6645 74.397 48.6645 74.397ZM48.5488 75.0777L58.8891 81.0442V87.6209C58.8891 87.7366 58.9534 87.8393 59.0497 87.8971L63.8024 90.6459C63.8537 90.6716 63.9116 90.6909 63.963 90.6909C64.0207 90.6909 64.0786 90.6716 64.1235 90.6459C64.2263 90.5882 64.2841 90.4789 64.2841 90.3697V84.1592L70.3534 87.6659C71.4259 88.2824 72.8197 88.61 74.2262 88.6357H74.228V115.007L74.2262 115.007C73.5711 114.962 72.9224 114.788 72.4215 114.499L49.2875 101.147C48.7672 100.839 48.4782 100.453 48.4782 100.055L48.5488 75.0777Z" fill="#482A8E"/>
<circle cx="17.6025" cy="49.9794" r="3.70402" fill="#4709D7" fill-opacity="0.1"/>
<circle cx="115.087" cy="25.903" r="6.90295" fill="#4709D7" fill-opacity="0.05"/>
<circle cx="18.7811" cy="127.933" r="6.56622" fill="#4709D7" fill-opacity="0.05"/>
<circle cx="136.297" cy="121.535" r="6.56622" fill="#4709D7" fill-opacity="0.05"/>
<circle cx="123.502" cy="128.943" r="3.19893" fill="#4709D7" fill-opacity="0.05"/>
<path d="M139.382 101.275L140.413 106.147L145.215 107.193L140.413 108.239L139.382 113.111L138.351 108.239L133.549 107.193L138.351 106.147L139.382 101.275Z" fill="white"/>
<path d="M133.215 51.5368C133.29 51.1808 133.798 51.1808 133.874 51.5368L134.53 54.6391C134.558 54.7687 134.659 54.8702 134.788 54.8984L137.867 55.5692C138.22 55.6462 138.22 56.1502 137.867 56.2272L134.788 56.898C134.659 56.9262 134.558 57.0276 134.53 57.1572L133.874 60.2595C133.798 60.6155 133.29 60.6155 133.215 60.2595L132.558 57.1572C132.531 57.0276 132.43 56.9262 132.3 56.898L129.221 56.2272C128.868 56.1502 128.868 55.6462 129.221 55.5692L132.3 54.8984C132.43 54.8702 132.531 54.7687 132.558 54.6391L133.215 51.5368Z" fill="#4709D7" fill-opacity="0.1"/>
<path d="M10.9417 92.279C11.0171 91.923 11.5252 91.923 11.6006 92.279L12.7262 97.5968C12.7536 97.7264 12.8545 97.8279 12.984 97.8561L18.2469 99.0026C18.6003 99.0796 18.6003 99.5837 18.2469 99.6606L12.984 100.807C12.8545 100.835 12.7536 100.937 12.7262 101.066L11.6006 106.384C11.5252 106.74 11.0171 106.74 10.9417 106.384L9.8161 101.066C9.78867 100.937 9.68779 100.835 9.55834 100.807L4.29543 99.6606C3.94203 99.5837 3.94203 99.0796 4.29543 99.0026L9.55834 97.8561C9.68779 97.8279 9.78867 97.7264 9.8161 97.5968L10.9417 92.279Z" fill="#4709D7" fill-opacity="0.1"/>
<path d="M31.9207 35.6815C31.7254 35.6399 31.7254 35.3613 31.9207 35.3198L34.8723 34.6921C34.9435 34.677 34.9991 34.6216 35.0145 34.5505L35.6501 31.6196C35.6922 31.4254 35.9693 31.4254 36.0114 31.6196L36.6469 34.5505C36.6624 34.6216 36.718 34.677 36.7892 34.6921L39.7408 35.3198C39.9361 35.3613 39.9361 35.6399 39.7408 35.6815L36.7892 36.3091C36.718 36.3243 36.6624 36.3797 36.6469 36.4508L36.0114 39.3816C35.9693 39.5759 35.6922 39.5759 35.6501 39.3816L35.0145 36.4508C34.9991 36.3797 34.9435 36.3243 34.8723 36.3091L31.9207 35.6815Z" fill="#4709D7" fill-opacity="0.1"/>
</svg>
